<mxfile host="app.diagrams.net" modified="2022-01-08T20:43:21.480Z" agent="5.0 (Macintosh; Intel Mac OS X 10_15_7) AppleWebKit/537.36 (KHTML, like Gecko) Chrome/97.0.4692.71 Safari/537.36" etag="iyYjAp6FiD0mR-okXSvk" version="16.2.4" type="github">
  <diagram id="C5RBs43oDa-KdzZeNtuy" name="Page-1">
    <mxGraphModel dx="2187" dy="2163" grid="1" gridSize="10" guides="1" tooltips="1" connect="1" arrows="1" fold="1" page="1" pageScale="1" pageWidth="827" pageHeight="1169" math="0" shadow="0">
      <root>
        <mxCell id="WIyWlLk6GJQsqaUBKTNV-0" />
        <mxCell id="WIyWlLk6GJQsqaUBKTNV-1" parent="WIyWlLk6GJQsqaUBKTNV-0" />
        <mxCell id="WIyWlLk6GJQsqaUBKTNV-3" value="&lt;font style=&quot;font-size: 14px&quot;&gt;業務申請(GP PF-MID &amp;amp; VMJ PF-ID)&lt;/font&gt;" style="rounded=1;whiteSpace=wrap;html=1;fontSize=12;glass=0;strokeWidth=1;shadow=0;" parent="WIyWlLk6GJQsqaUBKTNV-1" vertex="1">
          <mxGeometry x="235" y="-130" width="310" height="140" as="geometry" />
        </mxCell>
        <mxCell id="pFxtmkjG0qunvCOSC5KU-4" style="edgeStyle=orthogonalEdgeStyle;rounded=0;orthogonalLoop=1;jettySize=auto;html=1;exitX=0;exitY=0.444;exitDx=0;exitDy=0;exitPerimeter=0;" parent="WIyWlLk6GJQsqaUBKTNV-1" source="gJqucaNYICXQorOMi_ob-2" target="pFxtmkjG0qunvCOSC5KU-3" edge="1">
          <mxGeometry relative="1" as="geometry" />
        </mxCell>
        <mxCell id="pFxtmkjG0qunvCOSC5KU-9" style="edgeStyle=orthogonalEdgeStyle;rounded=0;orthogonalLoop=1;jettySize=auto;html=1;exitX=0.25;exitY=1;exitDx=0;exitDy=0;" parent="WIyWlLk6GJQsqaUBKTNV-1" source="gJqucaNYICXQorOMi_ob-2" edge="1">
          <mxGeometry relative="1" as="geometry">
            <mxPoint x="500" y="820" as="targetPoint" />
            <Array as="points">
              <mxPoint x="125" y="820" />
              <mxPoint x="500" y="820" />
            </Array>
          </mxGeometry>
        </mxCell>
        <mxCell id="pFxtmkjG0qunvCOSC5KU-11" style="edgeStyle=orthogonalEdgeStyle;rounded=0;orthogonalLoop=1;jettySize=auto;html=1;exitX=0.083;exitY=1.004;exitDx=0;exitDy=0;exitPerimeter=0;" parent="WIyWlLk6GJQsqaUBKTNV-1" source="gJqucaNYICXQorOMi_ob-2" edge="1">
          <mxGeometry relative="1" as="geometry">
            <mxPoint x="510" y="920" as="targetPoint" />
            <Array as="points">
              <mxPoint x="95" y="920" />
            </Array>
          </mxGeometry>
        </mxCell>
        <mxCell id="gJqucaNYICXQorOMi_ob-2" value="" style="rounded=1;whiteSpace=wrap;html=1;" parent="WIyWlLk6GJQsqaUBKTNV-1" vertex="1">
          <mxGeometry x="80" y="190" width="180" height="450" as="geometry" />
        </mxCell>
        <mxCell id="gJqucaNYICXQorOMi_ob-3" value="" style="endArrow=none;dashed=1;html=1;dashPattern=1 3;strokeWidth=2;rounded=0;" parent="WIyWlLk6GJQsqaUBKTNV-1" edge="1">
          <mxGeometry width="50" height="50" relative="1" as="geometry">
            <mxPoint x="390" y="30" as="sourcePoint" />
            <mxPoint x="400" y="1102" as="targetPoint" />
          </mxGeometry>
        </mxCell>
        <mxCell id="gJqucaNYICXQorOMi_ob-13" style="edgeStyle=orthogonalEdgeStyle;rounded=0;orthogonalLoop=1;jettySize=auto;html=1;entryX=1;entryY=0.5;entryDx=0;entryDy=0;fontSize=24;" parent="WIyWlLk6GJQsqaUBKTNV-1" source="gJqucaNYICXQorOMi_ob-6" target="gJqucaNYICXQorOMi_ob-11" edge="1">
          <mxGeometry relative="1" as="geometry">
            <Array as="points">
              <mxPoint x="490" y="490" />
              <mxPoint x="490" y="490" />
            </Array>
          </mxGeometry>
        </mxCell>
        <mxCell id="gJqucaNYICXQorOMi_ob-6" value="&lt;font style=&quot;font-size: 24px&quot;&gt;AsiaPay&lt;/font&gt;" style="rounded=1;whiteSpace=wrap;html=1;" parent="WIyWlLk6GJQsqaUBKTNV-1" vertex="1">
          <mxGeometry x="600" y="210" width="320" height="390" as="geometry" />
        </mxCell>
        <mxCell id="pFxtmkjG0qunvCOSC5KU-15" style="edgeStyle=orthogonalEdgeStyle;rounded=0;orthogonalLoop=1;jettySize=auto;html=1;entryX=1.028;entryY=0.289;entryDx=0;entryDy=0;entryPerimeter=0;fontSize=36;" parent="WIyWlLk6GJQsqaUBKTNV-1" source="gJqucaNYICXQorOMi_ob-9" target="gJqucaNYICXQorOMi_ob-2" edge="1">
          <mxGeometry relative="1" as="geometry" />
        </mxCell>
        <mxCell id="gJqucaNYICXQorOMi_ob-9" value="&lt;h1&gt;&lt;font style=&quot;font-size: 14px&quot;&gt;1. 報送檔&lt;/font&gt;&lt;/h1&gt;&lt;div&gt;&lt;span style=&quot;font-size: 14px&quot;&gt;次特店報送檔&lt;/span&gt;&lt;/div&gt;&lt;div&gt;&lt;span style=&quot;font-size: 14px&quot;&gt;TID 次特店報送檔&lt;/span&gt;&lt;/div&gt;" style="text;html=1;strokeColor=none;fillColor=none;spacing=5;spacingTop=-20;whiteSpace=wrap;overflow=hidden;rounded=0;" parent="WIyWlLk6GJQsqaUBKTNV-1" vertex="1">
          <mxGeometry x="440" y="260" width="160" height="120" as="geometry" />
        </mxCell>
        <mxCell id="gJqucaNYICXQorOMi_ob-10" value="Emaas" style="rounded=1;whiteSpace=wrap;html=1;fontSize=14;" parent="WIyWlLk6GJQsqaUBKTNV-1" vertex="1">
          <mxGeometry x="110" y="330" width="120" height="60" as="geometry" />
        </mxCell>
        <mxCell id="gJqucaNYICXQorOMi_ob-11" value="Carpool" style="rounded=1;whiteSpace=wrap;html=1;fontSize=14;" parent="WIyWlLk6GJQsqaUBKTNV-1" vertex="1">
          <mxGeometry x="110" y="460" width="120" height="60" as="geometry" />
        </mxCell>
        <mxCell id="gJqucaNYICXQorOMi_ob-15" value="GPTW" style="text;html=1;strokeColor=none;fillColor=none;align=center;verticalAlign=middle;whiteSpace=wrap;rounded=0;fontSize=24;" parent="WIyWlLk6GJQsqaUBKTNV-1" vertex="1">
          <mxGeometry x="140" y="220" width="60" height="30" as="geometry" />
        </mxCell>
        <mxCell id="pFxtmkjG0qunvCOSC5KU-1" style="edgeStyle=orthogonalEdgeStyle;rounded=0;orthogonalLoop=1;jettySize=auto;html=1;entryX=0.5;entryY=1;entryDx=0;entryDy=0;" parent="WIyWlLk6GJQsqaUBKTNV-1" source="pFxtmkjG0qunvCOSC5KU-0" target="gJqucaNYICXQorOMi_ob-2" edge="1">
          <mxGeometry relative="1" as="geometry" />
        </mxCell>
        <mxCell id="pFxtmkjG0qunvCOSC5KU-0" value="&lt;h1&gt;&lt;font style=&quot;font-size: 14px&quot;&gt;2. &lt;/font&gt;&lt;font style=&quot;font-size: 36px&quot;&gt;請款檔&lt;/font&gt;&lt;/h1&gt;&lt;div&gt;每日 00:00 給前一日請款資料&lt;/div&gt;&lt;div&gt;&lt;br&gt;&lt;/div&gt;" style="text;html=1;strokeColor=none;fillColor=none;spacing=5;spacingTop=-20;whiteSpace=wrap;overflow=hidden;rounded=0;" parent="WIyWlLk6GJQsqaUBKTNV-1" vertex="1">
          <mxGeometry x="710" y="670" width="210" height="120" as="geometry" />
        </mxCell>
        <mxCell id="pFxtmkjG0qunvCOSC5KU-5" style="edgeStyle=orthogonalEdgeStyle;rounded=0;orthogonalLoop=1;jettySize=auto;html=1;entryX=0;entryY=0.647;entryDx=0;entryDy=0;entryPerimeter=0;" parent="WIyWlLk6GJQsqaUBKTNV-1" source="pFxtmkjG0qunvCOSC5KU-3" target="gJqucaNYICXQorOMi_ob-2" edge="1">
          <mxGeometry relative="1" as="geometry">
            <mxPoint x="-40" y="610" as="targetPoint" />
            <Array as="points">
              <mxPoint x="-45" y="481" />
            </Array>
          </mxGeometry>
        </mxCell>
        <mxCell id="pFxtmkjG0qunvCOSC5KU-3" value="NCCC" style="rounded=1;whiteSpace=wrap;html=1;" parent="WIyWlLk6GJQsqaUBKTNV-1" vertex="1">
          <mxGeometry x="-100" y="330" width="80" height="120" as="geometry" />
        </mxCell>
        <mxCell id="pFxtmkjG0qunvCOSC5KU-6" value="清算檔" style="text;html=1;strokeColor=none;fillColor=none;align=center;verticalAlign=middle;whiteSpace=wrap;rounded=0;" parent="WIyWlLk6GJQsqaUBKTNV-1" vertex="1">
          <mxGeometry x="-10" y="360" width="60" height="30" as="geometry" />
        </mxCell>
        <mxCell id="pFxtmkjG0qunvCOSC5KU-8" value="＄" style="text;html=1;strokeColor=none;fillColor=none;align=center;verticalAlign=middle;whiteSpace=wrap;rounded=0;" parent="WIyWlLk6GJQsqaUBKTNV-1" vertex="1">
          <mxGeometry x="-20" y="490" width="60" height="30" as="geometry" />
        </mxCell>
        <mxCell id="pFxtmkjG0qunvCOSC5KU-10" value="&lt;h1&gt;&lt;font style=&quot;font-size: 14px&quot;&gt;3. 報表 ( 407 or 402 .... )&lt;/font&gt;&lt;/h1&gt;&lt;div&gt;每日 00:00 給前一日&lt;/div&gt;&lt;div&gt;&lt;br&gt;&lt;/div&gt;" style="text;html=1;strokeColor=none;fillColor=none;spacing=5;spacingTop=-20;whiteSpace=wrap;overflow=hidden;rounded=0;" parent="WIyWlLk6GJQsqaUBKTNV-1" vertex="1">
          <mxGeometry x="520" y="790" width="210" height="120" as="geometry" />
        </mxCell>
        <mxCell id="pFxtmkjG0qunvCOSC5KU-12" value="&lt;h1&gt;&lt;span style=&quot;font-size: 14px&quot;&gt;4. $&lt;/span&gt;&lt;/h1&gt;&lt;div&gt;&lt;span style=&quot;font-size: 14px&quot;&gt;&lt;br&gt;&lt;/span&gt;&lt;/div&gt;" style="text;html=1;strokeColor=none;fillColor=none;spacing=5;spacingTop=-20;whiteSpace=wrap;overflow=hidden;rounded=0;" parent="WIyWlLk6GJQsqaUBKTNV-1" vertex="1">
          <mxGeometry x="520" y="900" width="140" height="60" as="geometry" />
        </mxCell>
      </root>
    </mxGraphModel>
  </diagram>
</mxfile>
